<svg width="24" height="24" viewBox="0 0 24 24" fill="none" xmlns="http://www.w3.org/2000/svg">
<path d="M17.9914 21H6.00863C4.35277 21 3 19.6472 3 17.9914V6.00862C3 4.35277 4.35277 3 6.00863 3H17.9914C19.6472 3 21 4.35277 21 6.00862V17.9914C21 19.6546 19.6546 21 17.9914 21Z" stroke="white"/>
<path d="M8.73635 15.2713C9.60863 16.1435 10.7692 16.624 12.0037 16.624C13.2382 16.624 14.3914 16.1435 15.2711 15.2713C16.1433 14.399 16.6238 13.2384 16.6238 12.0039C16.6238 10.7694 16.1433 9.60884 15.2711 8.73656C14.3988 7.86428 13.2382 7.38379 12.0037 7.38379C10.7692 7.38379 9.60863 7.86428 8.73635 8.73656C7.86407 9.60884 7.38358 10.7694 7.38358 12.0039C7.38358 13.2384 7.86407 14.399 8.73635 15.2713Z" stroke="white"/>
<path d="M17.5244 7.23169C18.0143 7.23169 18.4115 6.83453 18.4115 6.34461C18.4115 5.85468 18.0143 5.45752 17.5244 5.45752C17.0345 5.45752 16.6373 5.85468 16.6373 6.34461C16.6373 6.83453 17.0345 7.23169 17.5244 7.23169Z" stroke="white"/>
</svg>
